PathFileType	4	(X/Y/Z)	Patient4_TMGait_0pt5_01_right_20.trc.trc
DataRate	CameraRate	NumFrames	NumMarkers	Units	OrigDataRate	OrigDataStartFrame	OrigNumFrames
75.675675675676	75.675675675676	5	33	mm	75.675675675676	18	       141
Frame#	Time	L.ASIS			Sacral			L.Shoulder			Chest			R.Shoulder			Neck			R.ASIS			R.Thigh.Superior			R.Thigh.Lateral			R.Thigh.Inferior			R.Patella			L.Thigh.Superior			L.Thigh.Lateral			L.Thigh.Inferior			L.Patella			L.Shank.Superior			L.Shank.Lateral			L.Shank.Inferior			R.Shank.Superior			R.Shank.Lateral			R.Shank.Inferior			R.Heel			R.Midfoot.Superior			R.Midfoot.Lateral			R.Toe			L.Heel			L.Midfoot.Lateral			L.Midfoot.Superior			L.Toe			L.Elbow			L.Wrist			R.Elbow			R.Wrist			
		X1	Y1	Z1	X2	Y2	Z2	X3	Y3	Z3	X4	Y4	Z4	X5	Y5	Z5	X6	Y6	Z6	X7	Y7	Z7	X8	Y8	Z8	X9	Y9	Z9	X10	Y10	Z10	X11	Y11	Z11	X12	Y12	Z12	X13	Y13	Z13	X14	Y14	Z14	X15	Y15	Z15	X16	Y16	Z16	X17	Y17	Z17	X18	Y18	Z18	X19	Y19	Z19	X20	Y20	Z20	X21	Y21	Z21	X22	Y22	Z22	X23	Y23	Z23	X24	Y24	Z24	X25	Y25	Z25	X26	Y26	Z26	X27	Y27	Z27	X28	Y28	Z28	X29	Y29	Z29	X30	Y30	Z30	X31	Y31	Z31	X32	Y32	Z32	X33	Y33	Z33	

18	26.374642857143	869.373548518032	958.611137269305	295.351320107357	646.142372504250	1002.621529019010	439.344033479712	830.852513465996	1433.193607598001	269.603133847134	921.016316821103	1363.971197310135	438.225762804312	822.900591365106	1437.392278496834	605.677347619995	820.942392573078	1493.952342716338	419.733733789798	864.989953953010	941.590583291072	571.191602213904	935.030826953783	764.237553294187	546.328023132838	886.086093740160	643.698732344057	616.918831466240	974.455889815843	602.648782335059	538.236350498201	1005.285923563748	518.262212479134	553.257010402130	877.264123900995	732.574546117931	325.409104894692	765.298192873961	634.859117607849	263.996907797663	826.562929670670	544.134354001144	329.839432842752	811.927509939476	476.526852741550	341.708504597063	780.812955461310	409.573943201559	334.031082439472	681.450412411750	303.909482170054	283.098727036697	717.511802827921	190.077507074516	359.037512155704	987.788124075651	431.679345128527	561.473858878189	933.318077559753	319.091921999205	624.275677994244	999.738451574234	231.789405039740	571.708596937075	902.863620482850	44.736484086873	542.564947584149	1064.076423280365	122.192361707319	585.734699070010	985.312290437490	44.953205073107	617.548085849664	1187.493172133923	86.419336680898	615.367001959975	576.510134398582	40.142737721589	402.091393820510	651.752646298954	35.483387376479	323.142540712291	735.352568481241	95.221395315035	350.351220750014	863.526816511207	41.130228480021	325.491824495557	859.654472437528	1092.897674700908	123.303830321878	1108.773440419981	1030.741195935483	133.413403365534	684.604769351449	1122.128858660708	711.831063021040	677.535928053838	860.174643597481	702.161157147561	
19	26.387857142857	870.472186945628	957.449987627681	297.271399818543	647.152654794268	1001.383435774245	440.978819191621	831.394066366048	1432.091103478510	271.284828786613	921.436624110645	1362.975163876581	439.991062345132	822.985035720082	1436.338537300303	607.168137402216	821.209962461765	1492.859065005878	421.316929620090	865.839816055548	940.525658496525	573.247583896836	935.202502619899	762.537800156355	548.643638874266	885.042773428308	641.792608788070	618.354328912488	973.506743847715	600.978218887447	539.790004747752	1003.682885923815	517.286735856433	553.934933471008	876.407306597931	731.097994956007	327.168625136827	763.562070227667	634.405897314910	265.248912166826	823.734661503369	543.095662016145	331.160604519112	808.455836256706	475.468769227276	342.866991114396	776.843408715192	408.790211132860	334.965330309673	676.548984137426	303.998257952306	283.790759876710	711.636428888371	189.699447147474	359.533629681934	987.530839002920	430.469792557580	562.197514748135	934.526479265332	316.950141659109	624.540379455725	1002.341830408125	230.727022924467	571.762316828077	907.805998612828	43.353253913076	541.846012171254	1068.546952119430	120.982553341530	585.286519452318	990.077530243683	43.718513730512	616.913358040150	1192.095241193556	85.634098487269	615.099986750139	569.863335687981	40.063900201263	402.145804940085	645.106784189163	35.464100190780	323.225571932975	728.724090417796	95.202950072033	350.465351526049	856.885881397733	41.014552172173	325.464369572043	861.030500341467	1091.715269533404	125.536527798187	1110.457901091649	1031.256489585413	136.354226479206	687.006737456569	1120.010046958251	713.690956158752	683.389858550387	858.046610049221	703.982753521080	
20	26.401071428571	871.753216607769	956.242791776614	299.316549260005	648.378459590948	999.977517528033	442.844211580577	831.831254898023	1430.930711485823	273.205923163458	921.869012368842	1361.955753746517	441.956640887608	823.069023517641	1435.140877421834	608.935559983083	821.383310915170	1491.681570188151	423.156823269165	867.038065792478	939.352766799192	575.386356807078	935.969710787239	760.885439803159	550.768933228959	884.697476994968	639.883416841077	619.569682337093	973.198390278977	599.406234098756	541.044956042551	1002.547955491711	516.078478044489	554.352258114931	875.747154612064	729.543958110469	328.921132093528	761.934055506127	633.894362032108	266.606616303676	821.054444085329	541.981133029524	332.553806848520	805.154373080111	474.280966151981	344.098538769468	772.976007193135	407.901628485615	335.973537853844	671.664557612765	304.053895669867	284.561794339806	705.775723144414	189.256696850445	360.062498433781	987.250855478768	428.873017989404	562.765232130345	934.928897813069	314.852639606902	624.668042066640	1003.452196267911	229.264541872821	571.699745802216	909.884843450848	42.450521933599	541.109965302294	1070.661555135598	119.073793035019	584.725523858824	991.958236490126	42.498324801894	616.316014986725	1194.086332191062	83.297431266688	614.786108460481	563.188720846231	39.882594087465	402.206246299390	638.455239817118	35.376756565617	323.314386025717	722.084089565501	95.165050127390	350.585651682360	850.274765605611	40.911840326802	325.420720996927	862.006151161840	1090.478232839685	127.866616773075	1111.591403540667	1031.026490550346	139.390075820907	689.920290919208	1117.472552726520	715.789440321515	690.415387697933	855.550901801555	706.079679098373	
21	26.414285714286	873.188362029593	955.012129990237	301.478356767466	649.795825278389	998.433895227515	444.939241582489	832.151792146171	1429.732883408399	275.377655666620	922.317106604425	1360.929624402779	444.127575904444	823.171379917426	1433.810943696687	611.003185352371	821.470231053142	1490.441273719191	425.271355423948	868.589291823026	938.086497537829	577.588286895757	937.368114757528	759.302017335121	552.652317916402	885.066821542883	638.010877600293	620.552388325894	973.576635047316	597.950385075971	542.022136938936	1001.924952824013	514.648315109789	554.515906294709	875.342793013879	727.939750569218	330.646916284629	760.506561087992	633.301387074744	268.083691272997	818.670961801274	540.782891720785	334.026361877247	802.204193114393	472.922596155538	345.395263866305	769.339978170060	406.874329911646	337.062573649275	666.888472404704	304.084943217338	285.424705891603	699.977888451385	188.742982262764	360.618722923387	987.028510660465	426.933229702859	563.167407312997	934.684453175161	312.800419660375	624.697623840351	1003.239610082597	227.414831497979	571.527195727465	909.330234782795	41.904522345871	540.436061582479	1070.594701452744	116.566336807586	584.060806961872	991.220948874210	41.273067833690	615.800752616953	1193.709996583099	79.661169301205	614.383501415024	556.484655262302	39.638904152754	402.262235573242	631.801154046334	35.227977099830	323.403797571193	715.451470185452	95.101605917419	350.703846877988	843.701621537031	40.813442908733	325.360492224312	862.554281789025	1089.198454973555	130.292682726643	1112.151971120529	1030.037996129453	142.498590425740	693.285143622404	1114.572607112406	718.109841306999	698.514311138650	852.769177242313	708.459229522476	
22	26.427500000000	874.733809565315	953.793881402173	303.743119632803	651.369830990286	996.800146367600	447.258871761236	832.352720655646	1428.536753816765	277.807688106404	922.787955931132	1359.922640183269	446.503514257057	823.321211866143	1432.375380009433	613.387168944223	821.490818917170	1489.176263112554	427.676078658248	870.478126143476	936.762218418600	579.833156020342	939.394784129472	757.818533806879	554.260726873471	886.136871316623	636.231163999449	621.310668592177	974.642475530904	596.630085342174	542.753175787405	1001.830332456681	513.034084438582	554.454196970241	875.263184543776	726.331517216371	332.341071551959	759.412074787312	632.602322459842	269.697761932570	816.789479313035	539.499939318284	335.588471952454	799.847572242900	471.355152063916	346.745231098015	766.114998344551	405.677004263581	338.237577187338	662.356291926447	304.116775810287	286.390032809755	694.316581773916	188.167225316660	361.193832087450	986.933507657107	424.737042787833	563.406464768476	933.985670239780	310.824430541341	624.672267077443	1001.939285888456	225.252140515183	571.254883629817	906.515929140702	41.613310884607	539.877337262355	1068.623384188504	113.645453654864	583.312569840695	988.261369116478	40.068251436011	615.397522977971	1191.309829280951	75.109894040702	613.878170051079	549.758559043364	39.421637778280	402.299256094853	625.152262486962	35.049585475481	323.486512094405	708.860370850586	95.012667814362	350.806890550295	837.171502725263	40.704808222601	325.286361663185	862.647160982357	1087.899612587056	132.827615221289	1112.108161428542	1028.277694946975	145.657377079265	697.063391394486	1111.375562217012	720.632058296964	707.589390318804	849.790881691648	711.119226614140	
